<?xml version="1.0" encoding="utf-8"?>
<!-- Generator: Adobe Illustrator 18.0.0, SVG Export Plug-In . SVG Version: 6.00 Build 0)  -->
<!DOCTYPE svg PUBLIC "-//W3C//DTD SVG 1.1//EN" "http://www.w3.org/Graphics/SVG/1.1/DTD/svg11.dtd">
<svg version="1.1" id="Layer_1" xmlns="http://www.w3.org/2000/svg" xmlns:xlink="http://www.w3.org/1999/xlink" x="0px" y="0px"
	 viewBox="0 0 50 50" enable-background="new 0 0 50 50" xml:space="preserve">
<path fill="#FFFFFF" d="M25.1,16.5c-4.7,0-8.5,3.8-8.5,8.5c0,3.5,2.1,6.5,5.1,7.8c0-0.6,0-1.3,0.1-2c0.2-0.7,1.1-4.6,1.1-4.6
	s-0.3-0.5-0.3-1.3c0-1.3,0.7-2.2,1.6-2.2c0.8,0,1.1,0.6,1.1,1.3c0,0.8-0.5,1.9-0.8,3c-0.2,0.9,0.5,1.6,1.3,1.6
	c1.6,0,2.7-2.1,2.7-4.5c0-1.9-1.3-3.3-3.5-3.3c-2.6,0-4.2,1.9-4.2,4.1c0,0.7,0.2,1.3,0.6,1.7c0.2,0.2,0.2,0.3,0.1,0.5
	c0,0.2-0.1,0.5-0.2,0.7c-0.1,0.2-0.2,0.3-0.4,0.2c-1.2-0.5-1.7-1.8-1.7-3.2c0-2.4,2-5.3,6.1-5.3c3.2,0,5.4,2.4,5.4,4.9
	c0,3.3-1.9,5.8-4.6,5.8c-0.9,0-1.8-0.5-2.1-1.1c0,0-0.5,2-0.6,2.3c-0.2,0.7-0.5,1.3-0.9,1.8c0.8,0.2,1.6,0.3,2.4,0.3
	c4.7,0,8.5-3.8,8.5-8.5C33.6,20.3,29.8,16.5,25.1,16.5"/>
</svg>
